<svg xmlns="http://www.w3.org/2000/svg" fill="none" data-pointer="none" viewBox="0 0 162 48"><path fill="#000" fill-opacity=".703" fill-rule="evenodd" d="M1 27.075C1 16.07 9.92 7.149 20.925 7.149h55.91L81.522 1l4.741 6.15h54.812C152.079 7.15 161 16.07 161 27.074 161 38.079 152.079 47 141.075 47H20.925C9.921 47 1 38.08 1 27.075Z" clip-rule="evenodd"></path><path stroke="#fff" stroke-linejoin="round" stroke-opacity=".496" d="M81.918.695a.5.5 0 0 0-.794.002l-4.536 5.952H20.925C9.645 6.65.5 15.794.5 27.075.5 38.355 9.645 47.5 20.925 47.5h120.15c11.28 0 20.425-9.145 20.425-20.425 0-11.281-9.145-20.426-20.425-20.426H86.509L81.918.695Z"></path></svg>