<svg xmlns="http://www.w3.org/2000/svg" fill="none" data-pointer="none" viewBox="0 0 145 42"><path fill="#000" fill-opacity=".703" fill-rule="evenodd" d="M1 23.562c0-9.63 7.807-17.438 17.438-17.438h4.372L26.65 1l3.887 5.124h96.025c9.631 0 17.438 7.808 17.438 17.438C144 33.192 136.193 41 126.562 41H18.438C8.808 41 1 33.193 1 23.562Z" clip-rule="evenodd"></path><path stroke="#fff" stroke-linejoin="round" stroke-opacity=".496" d="M27.05.698a.5.5 0 0 0-.8.002l-3.69 4.924h-4.122C8.53 5.624.5 13.655.5 23.562.5 33.47 8.531 41.5 18.438 41.5h108.124c9.907 0 17.938-8.031 17.938-17.938 0-9.907-8.031-17.938-17.938-17.938H30.785L27.05.698Z"></path></svg>