<svg fill="none" data-pointer="none" version="1.1" viewBox="0 0 145 42" xmlns="http://www.w3.org/2000/svg"><path d="m144 23.562c0-9.63-7.807-17.438-17.438-17.438h-4.372l-3.84-5.124-3.887 5.124h-96.025c-9.631 0-17.438 7.808-17.438 17.438s7.807 17.438 17.438 17.438h108.12c9.63 0 17.438-7.807 17.438-17.438z" clip-rule="evenodd" fill="#000" fill-opacity=".703" fill-rule="evenodd"/><path d="m117.95 0.698a0.5 0.5 0 0 1 0.8 2e-3l3.69 4.924h4.122c9.908 0 17.938 8.031 17.938 17.938 0 9.908-8.031 17.938-17.938 17.938h-108.12c-9.907 0-17.938-8.031-17.938-17.938s8.031-17.938 17.938-17.938h95.777z" stroke="#fff" stroke-linejoin="round" stroke-opacity=".496"/></svg>